REM DIRINDEX 1\2\6,1\2\7,1\2\8,1\2\9,1\3\10,1\3\11,1\4\12,1\4\13,1\4\14,1\5\15,1\5\16,1\5\17
REM DIRNAME cjc029,folder01,folder02,folder03,folder04,folder05,folder06,folder07,folder08,folder09,folder10,folder11,folder12,folder13,folder14,folder15,folder16
TITLE ""
FILE "1400_3_sec04_0334_0349.mp3" MP3
  TRACK 01 AUDIO
    TITLE "0:"
    INDEX 01 00:00:00
  TRACK 02 AUDIO
    TITLE "17:cjc029_5097"
    INDEX 01 00:00:15
  TRACK 03 AUDIO
    TITLE "0:"
    INDEX 01 00:01:46
  TRACK 04 AUDIO
    TITLE "16:cjc029_5098"
    INDEX 01 00:01:52
  TRACK 05 AUDIO
    TITLE "0:"
    INDEX 01 00:02:65
  TRACK 06 AUDIO
    TITLE "17:cjc029_5099"
    INDEX 01 00:03:49
  TRACK 07 AUDIO
    TITLE "0:"
    INDEX 01 00:06:35
  TRACK 08 AUDIO
    TITLE "16:cjc029_5100"
    INDEX 01 00:06:41
  TRACK 09 AUDIO
    TITLE "0:"
    INDEX 01 00:07:68
  TRACK 10 AUDIO
    TITLE "17:cjc029_5101"
    INDEX 01 00:08:52
  TRACK 11 AUDIO
    TITLE "0:"
    INDEX 01 00:10:12
  TRACK 12 AUDIO
    TITLE "16:cjc029_5102"
    INDEX 01 00:10:18
  TRACK 13 AUDIO
    TITLE "0:"
    INDEX 01 00:11:29
  TRACK 14 AUDIO
    TITLE "17:cjc029_5103"
    INDEX 01 00:12:14
  TRACK 15 AUDIO
    TITLE "0:"
    INDEX 01 00:13:18
  TRACK 16 AUDIO
    TITLE "16:cjc029_5104"
    INDEX 01 00:13:24
  TRACK 17 AUDIO
    TITLE "0:"
    INDEX 01 00:14:27
  TRACK 18 AUDIO
    TITLE "17:cjc029_5105"
    INDEX 01 00:15:11
  TRACK 19 AUDIO
    TITLE "0:"
    INDEX 01 00:16:51
  TRACK 20 AUDIO
    TITLE "16:cjc029_5106"
    INDEX 01 00:16:57
  TRACK 21 AUDIO
    TITLE "0:"
    INDEX 01 00:18:19
  TRACK 22 AUDIO
    TITLE "17:cjc029_5107"
    INDEX 01 00:19:05
  TRACK 23 AUDIO
    TITLE "0:"
    INDEX 01 00:20:36
  TRACK 24 AUDIO
    TITLE "16:cjc029_5108"
    INDEX 01 00:20:41
  TRACK 25 AUDIO
    TITLE "0:"
    INDEX 01 00:21:72
  TRACK 26 AUDIO
    TITLE "17:cjc029_5109"
    INDEX 01 00:22:56
  TRACK 27 AUDIO
    TITLE "0:"
    INDEX 01 00:23:65
  TRACK 28 AUDIO
    TITLE "16:cjc029_5110"
    INDEX 01 00:23:73
  TRACK 29 AUDIO
    TITLE "0:"
    INDEX 01 00:25:09
  TRACK 30 AUDIO
    TITLE "17:cjc029_5111"
    INDEX 01 00:25:70
  TRACK 31 AUDIO
    TITLE "0:"
    INDEX 01 00:27:26
  TRACK 32 AUDIO
    TITLE "16:cjc029_5112"
    INDEX 01 00:27:34
  TRACK 33 AUDIO
    TITLE "0:"
    INDEX 01 00:28:47
  TRACK 34 AUDIO
    TITLE "17:cjc029_5113"
    INDEX 01 00:29:38
  TRACK 35 AUDIO
    TITLE "0:"
    INDEX 01 00:31:33
  TRACK 36 AUDIO
    TITLE "16:cjc029_5114"
    INDEX 01 00:31:37
  TRACK 37 AUDIO
    TITLE "0:"
    INDEX 01 00:32:39
  TRACK 38 AUDIO
    TITLE "17:cjc029_5115"
    INDEX 01 00:33:24
  TRACK 39 AUDIO
    TITLE "0:"
    INDEX 01 00:34:42
  TRACK 40 AUDIO
    TITLE "16:cjc029_5116"
    INDEX 01 00:34:49
  TRACK 41 AUDIO
    TITLE "0:"
    INDEX 01 00:35:74
  TRACK 42 AUDIO
    TITLE "17:cjc029_5117"
    INDEX 01 00:36:58
  TRACK 43 AUDIO
    TITLE "0:"
    INDEX 01 00:37:67
  TRACK 44 AUDIO
    TITLE "16:cjc029_5118"
    INDEX 01 00:37:71
  TRACK 45 AUDIO
    TITLE "0:"
    INDEX 01 00:39:13
  TRACK 46 AUDIO
    TITLE "17:cjc029_5119"
    INDEX 01 00:39:72
  TRACK 47 AUDIO
    TITLE "0:"
    INDEX 01 00:40:68
  TRACK 48 AUDIO
    TITLE "16:cjc029_5120"
    INDEX 01 00:41:00
  TRACK 49 AUDIO
    TITLE "0:"
    INDEX 01 00:42:10
  TRACK 50 AUDIO
    TITLE "17:cjc029_5121"
    INDEX 01 00:42:70
  TRACK 51 AUDIO
    TITLE "0:"
    INDEX 01 00:44:67
  TRACK 52 AUDIO
    TITLE "16:cjc029_5122"
    INDEX 01 00:44:73
  TRACK 53 AUDIO
    TITLE "0:"
    INDEX 01 00:46:00
  TRACK 54 AUDIO
    TITLE "17:cjc029_5123"
    INDEX 01 00:46:64
  TRACK 55 AUDIO
    TITLE "0:"
    INDEX 01 00:48:08
  TRACK 56 AUDIO
    TITLE "16:cjc029_5124"
    INDEX 01 00:48:12
  TRACK 57 AUDIO
    TITLE "0:"
    INDEX 01 00:49:33
  TRACK 58 AUDIO
    TITLE "17:cjc029_5125"
    INDEX 01 00:50:21
  TRACK 59 AUDIO
    TITLE "0:"
    INDEX 01 00:51:40
  TRACK 60 AUDIO
    TITLE "16:cjc029_5126"
    INDEX 01 00:51:46
  TRACK 61 AUDIO
    TITLE "0:"
    INDEX 01 00:52:57
  TRACK 62 AUDIO
    TITLE "17:cjc029_5127"
    INDEX 01 00:53:43
  TRACK 63 AUDIO
    TITLE "0:"
    INDEX 01 00:54:62
  TRACK 64 AUDIO
    TITLE "16:cjc029_5128"
    INDEX 01 00:54:68
  TRACK 65 AUDIO
    TITLE "0:"
    INDEX 01 00:55:73
